<mxfile host="app.diagrams.net" modified="2021-06-18T07:37:31.878Z" agent="5.0 (Windows NT 10.0; WOW64) AppleWebKit/537.36 (KHTML, like Gecko) Chrome/70.0.3538.25 Safari/537.36" etag="bp4VgwvXWMifhAFcN1We" version="14.8.0" type="github">
  <diagram id="ALiVe3Anc-BEjCZCLvTl" name="第 1 页">
    <mxGraphModel dx="753" dy="474" grid="1" gridSize="10" guides="1" tooltips="1" connect="1" arrows="1" fold="1" page="1" pageScale="1" pageWidth="827" pageHeight="1169" math="0" shadow="0">
      <root>
        <mxCell id="0" />
        <mxCell id="1" parent="0" />
        <mxCell id="Uk0rPxLy00tEzD8gPeDS-1" value="" style="rounded=1;whiteSpace=wrap;html=1;" vertex="1" parent="1">
          <mxGeometry x="230" y="120" width="260" height="160" as="geometry" />
        </mxCell>
        <mxCell id="Uk0rPxLy00tEzD8gPeDS-14" style="edgeStyle=orthogonalEdgeStyle;rounded=0;orthogonalLoop=1;jettySize=auto;html=1;exitX=0.5;exitY=1;exitDx=0;exitDy=0;entryX=0.5;entryY=0;entryDx=0;entryDy=0;entryPerimeter=0;" edge="1" parent="1" source="Uk0rPxLy00tEzD8gPeDS-2" target="Uk0rPxLy00tEzD8gPeDS-11">
          <mxGeometry relative="1" as="geometry" />
        </mxCell>
        <mxCell id="Uk0rPxLy00tEzD8gPeDS-17" style="edgeStyle=orthogonalEdgeStyle;rounded=0;orthogonalLoop=1;jettySize=auto;html=1;entryX=0;entryY=0.5;entryDx=0;entryDy=0;" edge="1" parent="1" source="Uk0rPxLy00tEzD8gPeDS-2" target="Uk0rPxLy00tEzD8gPeDS-4">
          <mxGeometry relative="1" as="geometry" />
        </mxCell>
        <mxCell id="Uk0rPxLy00tEzD8gPeDS-22" style="edgeStyle=orthogonalEdgeStyle;rounded=0;orthogonalLoop=1;jettySize=auto;html=1;exitX=0.5;exitY=0;exitDx=0;exitDy=0;entryX=0.5;entryY=0;entryDx=0;entryDy=0;" edge="1" parent="1" source="Uk0rPxLy00tEzD8gPeDS-2" target="Uk0rPxLy00tEzD8gPeDS-3">
          <mxGeometry relative="1" as="geometry" />
        </mxCell>
        <mxCell id="Uk0rPxLy00tEzD8gPeDS-2" value="Producer" style="rounded=0;whiteSpace=wrap;html=1;" vertex="1" parent="1">
          <mxGeometry x="40" y="170" width="120" height="60" as="geometry" />
        </mxCell>
        <mxCell id="Uk0rPxLy00tEzD8gPeDS-23" style="edgeStyle=orthogonalEdgeStyle;rounded=0;orthogonalLoop=1;jettySize=auto;html=1;exitX=0.5;exitY=1;exitDx=0;exitDy=0;entryX=0.25;entryY=0;entryDx=0;entryDy=0;" edge="1" parent="1" source="Uk0rPxLy00tEzD8gPeDS-3" target="Uk0rPxLy00tEzD8gPeDS-10">
          <mxGeometry relative="1" as="geometry" />
        </mxCell>
        <mxCell id="Uk0rPxLy00tEzD8gPeDS-3" value="Q3" style="rounded=1;whiteSpace=wrap;html=1;" vertex="1" parent="1">
          <mxGeometry x="260" y="150" width="50" height="30" as="geometry" />
        </mxCell>
        <mxCell id="Uk0rPxLy00tEzD8gPeDS-18" style="edgeStyle=orthogonalEdgeStyle;rounded=0;orthogonalLoop=1;jettySize=auto;html=1;exitX=1;exitY=0.5;exitDx=0;exitDy=0;entryX=0;entryY=0.5;entryDx=0;entryDy=0;" edge="1" parent="1" source="Uk0rPxLy00tEzD8gPeDS-4" target="Uk0rPxLy00tEzD8gPeDS-8">
          <mxGeometry relative="1" as="geometry" />
        </mxCell>
        <mxCell id="Uk0rPxLy00tEzD8gPeDS-4" value="Q1" style="rounded=1;whiteSpace=wrap;html=1;" vertex="1" parent="1">
          <mxGeometry x="335" y="220" width="50" height="30" as="geometry" />
        </mxCell>
        <mxCell id="Uk0rPxLy00tEzD8gPeDS-24" style="edgeStyle=orthogonalEdgeStyle;rounded=0;orthogonalLoop=1;jettySize=auto;html=1;exitX=0.5;exitY=1;exitDx=0;exitDy=0;entryX=0.75;entryY=0;entryDx=0;entryDy=0;" edge="1" parent="1" source="Uk0rPxLy00tEzD8gPeDS-5" target="Uk0rPxLy00tEzD8gPeDS-10">
          <mxGeometry relative="1" as="geometry" />
        </mxCell>
        <mxCell id="Uk0rPxLy00tEzD8gPeDS-5" value="Q2" style="rounded=1;whiteSpace=wrap;html=1;" vertex="1" parent="1">
          <mxGeometry x="410" y="150" width="50" height="30" as="geometry" />
        </mxCell>
        <mxCell id="Uk0rPxLy00tEzD8gPeDS-6" value="&lt;font style=&quot;font-size: 14px&quot;&gt;mq&lt;/font&gt;" style="text;html=1;resizable=0;autosize=1;align=center;verticalAlign=middle;points=[];fillColor=none;strokeColor=none;rounded=0;" vertex="1" parent="1">
          <mxGeometry x="345" y="120" width="30" height="20" as="geometry" />
        </mxCell>
        <mxCell id="Uk0rPxLy00tEzD8gPeDS-15" style="edgeStyle=orthogonalEdgeStyle;rounded=0;orthogonalLoop=1;jettySize=auto;html=1;exitX=0.5;exitY=1;exitDx=0;exitDy=0;entryX=0.5;entryY=0;entryDx=0;entryDy=0;entryPerimeter=0;" edge="1" parent="1" source="Uk0rPxLy00tEzD8gPeDS-8" target="Uk0rPxLy00tEzD8gPeDS-13">
          <mxGeometry relative="1" as="geometry" />
        </mxCell>
        <mxCell id="Uk0rPxLy00tEzD8gPeDS-21" style="edgeStyle=orthogonalEdgeStyle;rounded=0;orthogonalLoop=1;jettySize=auto;html=1;exitX=0.5;exitY=0;exitDx=0;exitDy=0;entryX=0.5;entryY=0;entryDx=0;entryDy=0;" edge="1" parent="1" source="Uk0rPxLy00tEzD8gPeDS-8" target="Uk0rPxLy00tEzD8gPeDS-5">
          <mxGeometry relative="1" as="geometry" />
        </mxCell>
        <mxCell id="Uk0rPxLy00tEzD8gPeDS-8" value="Consumer" style="rounded=0;whiteSpace=wrap;html=1;" vertex="1" parent="1">
          <mxGeometry x="560" y="170" width="120" height="60" as="geometry" />
        </mxCell>
        <mxCell id="Uk0rPxLy00tEzD8gPeDS-27" style="edgeStyle=orthogonalEdgeStyle;rounded=0;orthogonalLoop=1;jettySize=auto;html=1;exitX=1;exitY=0.5;exitDx=0;exitDy=0;entryX=0.5;entryY=1;entryDx=0;entryDy=0;entryPerimeter=0;" edge="1" parent="1" source="Uk0rPxLy00tEzD8gPeDS-9" target="Uk0rPxLy00tEzD8gPeDS-12">
          <mxGeometry relative="1" as="geometry" />
        </mxCell>
        <mxCell id="Uk0rPxLy00tEzD8gPeDS-28" style="edgeStyle=orthogonalEdgeStyle;rounded=0;orthogonalLoop=1;jettySize=auto;html=1;exitX=0;exitY=0.5;exitDx=0;exitDy=0;entryX=0.5;entryY=1;entryDx=0;entryDy=0;entryPerimeter=0;" edge="1" parent="1" source="Uk0rPxLy00tEzD8gPeDS-9" target="Uk0rPxLy00tEzD8gPeDS-11">
          <mxGeometry relative="1" as="geometry" />
        </mxCell>
        <mxCell id="Uk0rPxLy00tEzD8gPeDS-29" style="edgeStyle=orthogonalEdgeStyle;rounded=0;orthogonalLoop=1;jettySize=auto;html=1;exitX=0.5;exitY=1;exitDx=0;exitDy=0;entryX=0;entryY=0.5;entryDx=0;entryDy=0;" edge="1" parent="1" source="Uk0rPxLy00tEzD8gPeDS-9" target="Uk0rPxLy00tEzD8gPeDS-2">
          <mxGeometry relative="1" as="geometry" />
        </mxCell>
        <mxCell id="Uk0rPxLy00tEzD8gPeDS-9" value="定时检查服务" style="rounded=0;whiteSpace=wrap;html=1;" vertex="1" parent="1">
          <mxGeometry x="300" y="380" width="120" height="40" as="geometry" />
        </mxCell>
        <mxCell id="Uk0rPxLy00tEzD8gPeDS-16" style="edgeStyle=orthogonalEdgeStyle;rounded=0;orthogonalLoop=1;jettySize=auto;html=1;exitX=1;exitY=0.5;exitDx=0;exitDy=0;entryX=0;entryY=0.5;entryDx=0;entryDy=0;entryPerimeter=0;" edge="1" parent="1" source="Uk0rPxLy00tEzD8gPeDS-10" target="Uk0rPxLy00tEzD8gPeDS-12">
          <mxGeometry relative="1" as="geometry" />
        </mxCell>
        <mxCell id="Uk0rPxLy00tEzD8gPeDS-25" style="edgeStyle=orthogonalEdgeStyle;rounded=0;orthogonalLoop=1;jettySize=auto;html=1;exitX=0;exitY=0.5;exitDx=0;exitDy=0;entryX=0;entryY=0.5;entryDx=0;entryDy=0;" edge="1" parent="1" source="Uk0rPxLy00tEzD8gPeDS-10" target="Uk0rPxLy00tEzD8gPeDS-2">
          <mxGeometry relative="1" as="geometry" />
        </mxCell>
        <mxCell id="Uk0rPxLy00tEzD8gPeDS-10" value="回调检查服务" style="rounded=0;whiteSpace=wrap;html=1;" vertex="1" parent="1">
          <mxGeometry x="240" y="320" width="240" height="40" as="geometry" />
        </mxCell>
        <mxCell id="Uk0rPxLy00tEzD8gPeDS-11" value="DB" style="shape=cylinder3;whiteSpace=wrap;html=1;boundedLbl=1;backgroundOutline=1;size=15;" vertex="1" parent="1">
          <mxGeometry x="75" y="270" width="50" height="50" as="geometry" />
        </mxCell>
        <mxCell id="Uk0rPxLy00tEzD8gPeDS-12" value="DB" style="shape=cylinder3;whiteSpace=wrap;html=1;boundedLbl=1;backgroundOutline=1;size=15;" vertex="1" parent="1">
          <mxGeometry x="545" y="315" width="50" height="50" as="geometry" />
        </mxCell>
        <mxCell id="Uk0rPxLy00tEzD8gPeDS-13" value="DB" style="shape=cylinder3;whiteSpace=wrap;html=1;boundedLbl=1;backgroundOutline=1;size=15;" vertex="1" parent="1">
          <mxGeometry x="595" y="270" width="50" height="50" as="geometry" />
        </mxCell>
      </root>
    </mxGraphModel>
  </diagram>
</mxfile>
